# xmcd
#
# Track frame offsets: 
#        150
#        12338
#        33143
#        43948
#        59157
#        72574
#        85549
#        103919
#        119667
#        134004
#        145503
#        157594
#
# Disc length: 2187 seconds
#
# Revision: 0
# Processed by: cddbd v1.5.2PL0 Copyright (c) Steve Scherf et al.
# Submitted via: ExactAudioCopy v0.95b4
#
DISCID=a808890c
DTITLE=Burnett Family Bluegrass - Canyon Rose
DYEAR=2007
DGENRE=Bluegrass
TTITLE0=First Light
TTITLE1=Canyon Rose
TTITLE2=Smuggler's Run
TTITLE3=Big Black Train
TTITLE4=Uncle Pen
TTITLE5=This Heart of Mine
TTITLE6=Macedonia
TTITLE7=Breaking Heartstrings
TTITLE8=I'd Rather Be a Lonesome Pine
TTITLE9=Foolish Heart
TTITLE10=Rise and Shine
TTITLE11=Reverie
EXTD=
EXTT0=
EXTT1=
EXTT2=
EXTT3=
EXTT4=
EXTT5=
EXTT6=
EXTT7=
EXTT8=
EXTT9=
EXTT10=
EXTT11=
PLAYORDER=
